#!OML:ASF I:\Actors\actors\Patient Classification 2\Patient 1\Session 1\actor1.ASF
:FULLY-SPECIFIED
:DEGREES
76
root -0.894694 18.5958 6.03867 -1.417 -1.89605 -3.33711
lowerback 9.57222 1.36678 0.00700175
upperback -1.53119 1.88554 0.878665
thorax -7.01864 0.941891 0.627436
lowerneck -11.4846 -2.37981 -0.69824
upperneck 24.5823 -4.00247 3.09902
head 9.74847 -1.57876 0.726839
rclavicle -1.10232e-014 -2.18663e-015
rhumerus -48.3211 -3.58546 -86.2538
rradius 42.2869
rwrist 17.3907
rhand -9.64368 -29.1777
rfingers 7.12502
rthumb 16.3268 -58.5104
lclavicle -1.10232e-014 -2.18663e-015
lhumerus -41.3172 2.27378 90.4503
lradius 37.1307
lwrist -12.3015
lhand -3.9102 -25.7543
lfingers 7.12502
lthumb 21.8402 3.03324
rfemur 11.0357 -4.94089 16.4349
rtibia -3.18055e-015
rfoot -13.3361 -6.78221
rtoes -10.1235
lfemur -2.33106 -4.02526 -10.5357
ltibia 24.0541
lfoot -21.8087 9.40664
ltoes -56.4978
77
root -0.894526 18.5965 6.03804 -1.41333 -1.89843 -3.32351
lowerback 9.58525 1.38076 -0.0142276
upperback -1.53864 1.90177 0.878387
thorax -7.03495 0.950666 0.636154
lowerneck -11.4944 -2.38664 -0.662293
upperneck 24.6098 -4.0131 3.06776
head 9.75892 -1.58328 0.708528
rclavicle -5.10783e-015 -1.5704e-014
rhumerus -48.342 -3.5937 -86.2425
rradius 42.3029
rwrist 17.4048
rhand -8.55944 -29.0097
rfingers 7.12502
rthumb 17.3705 -58.2535
lclavicle -5.10783e-015 -1.5704e-014
lhumerus -41.3305 2.24895 90.4723
lradius 37.1307
lwrist -12.2676
lhand -3.84659 -25.7383
lfingers 7.12502
lthumb 21.9013 3.04214
rfemur 11.0325 -4.93848 16.422
rtibia -1.27222e-014
rfoot -13.3187 -6.79369
rtoes -10.3484
lfemur -2.33217 -4.00548 -10.5557
ltibia 24.0522
lfoot -21.7377 9.46895
ltoes -56.5943
78
root -0.894891 18.5972 6.03747 -1.40794 -1.8971 -3.32326
lowerback 9.57249 1.38263 -0.0327173
upperback -1.53275 1.90264 0.888809
thorax -7.02239 0.952091 0.65774
lowerneck -11.507 -2.39014 -0.684719
upperneck 24.6145 -4.0185 3.08781
head 9.76406 -1.58538 0.718503
rclavicle 1.9967e-014 -2.5842e-015
rhumerus -48.323 -3.56669 -86.2489
rradius 42.2879
rwrist 17.4465
rhand -7.97335 -28.9435
rfingers 7.12502
rthumb 17.9345 -58.1366
lclavicle 1.9967e-014 -2.5842e-015
lhumerus -41.3258 2.26305 90.4871
lradius 37.1315
lwrist -12.2781
lhand -3.80704 -25.6667
lfingers 7.12502
lthumb 21.9392 3.10921
rfemur 11.0273 -4.94043 16.4248
rtibia 6.36111e-015
rfoot -13.3008 -6.81289
rtoes -10.5219
lfemur -2.3376 -4.03039 -10.5572
ltibia 24.0454
lfoot -21.7658 9.47142
ltoes -56.5499
79
root -0.894988 18.597 6.03642 -1.4166 -1.89638 -3.32917
lowerback 9.59343 1.37763 -0.0312493
upperback -1.53268 1.89636 0.890587
thorax -7.03422 0.94896 0.659266
lowerneck -11.5054 -2.3943 -0.694647
upperneck 24.6067 -4.02476 3.09869
head 9.7616 -1.58816 0.723232
rclavicle -1.67926e-014 4.77083e-015
rhumerus -48.3353 -3.54673 -86.274
rradius 42.3045
rwrist 17.4636
rhand -7.95583 -29.0251
rfingers 7.12502
rthumb 17.9513 -58.2166
lclavicle -1.67926e-014 4.77083e-015
lhumerus -41.3508 2.22146 90.4982
lradius 37.1707
lwrist -12.2592
lhand -3.76631 -25.5754
lfingers 7.12502
lthumb 21.9783 3.19594
rfemur 11.0346 -4.94065 16.4293
rtibia -6.36111e-015
rfoot -13.3138 -6.81604
rtoes -10.4306
lfemur -2.32973 -4.04088 -10.5479
ltibia 24.0323
lfoot -21.7933 9.43753
ltoes -56.5243
80
root -0.895328 18.5963 6.03503 -1.43099 -1.89591 -3.30965
lowerback 9.62984 1.37324 -0.0545967
upperback -1.52966 1.88743 0.885243
thorax -7.05229 0.945346 0.667352
lowerneck -11.5333 -2.3871 -0.710972
upperneck 24.6329 -4.0169 3.11685
head 9.77687 -1.58327 0.732914
rclavicle -1.78021e-014 -3.77691e-015
rhumerus -48.344 -3.52705 -86.2932
rradius 42.3405
rwrist 17.4385
rhand -7.91462 -29.0778
rfingers 7.12502
rthumb 17.991 -58.2657
lclavicle -1.78021e-014 -3.77691e-015
lhumerus -41.3697 2.17025 90.5083
lradius 37.2124
lwrist -12.2228
lhand -3.78099 -25.5203
lfingers 7.12502
lthumb 21.9643 3.25273
rfemur 11.0459 -4.93948 16.4062
rtibia 1.11319e-014
rfoot -13.3216 -6.80974
rtoes -10.3116
lfemur -2.31258 -4.06461 -10.5706
ltibia 24.0212
lfoot -21.7842 9.44702
ltoes -56.5307
81
root -0.896306 18.5963 6.03342 -1.44786 -1.8883 -3.27187
lowerback 9.65846 1.36804 -0.118892
upperback -1.51493 1.87321 0.89339
thorax -7.05519 0.941103 0.713807
lowerneck -11.575 -2.37933 -0.76417
upperneck 24.6563 -4.00072 3.13806
head 9.7944 -1.57746 0.750738
rclavicle 1.20342e-014 2.38542e-015
rhumerus -48.303 -3.51721 -86.2719
rradius 42.3302
rwrist 17.4506
rhand -7.81587 -29.0671
rfingers 7.12502
rthumb 18.086 -58.2462
lclavicle 1.20342e-014 2.38542e-015
lhumerus -41.3591 2.16842 90.5376
lradius 37.2456
lwrist -12.1908
lhand -3.81961 -25.5057
lfingers 7.12502
lthumb 21.9272 3.27165
rfemur 11.0606 -4.94507 16.3665
rtibia -2.54444e-014
rfoot -13.3266 -6.80142
rtoes -10.098
lfemur -2.30143 -4.076 -10.6105
ltibia 24.0205
lfoot -21.7786 9.48521
ltoes -56.5517
82
root -0.896622 18.5964 6.03255 -1.46116 -1.87155 -3.28059
lowerback 9.69179 1.36121 -0.116539
upperback -1.51945 1.865 0.899783
thorax -7.07909 0.937095 0.719667
lowerneck -11.5796 -2.38163 -0.767636
upperneck 24.6694 -3.99944 3.12127
head 9.79958 -1.57883 0.745582
rclavicle -6.28967e-015 -5.96354e-015
rhumerus -48.3011 -3.53705 -86.2556
rradius 42.3195
rwrist 17.491
rhand -7.75641 -29.0281
rfingers 7.12502
rthumb 18.1432 -58.2019
lclavicle -6.28967e-015 -5.96354e-015
lhumerus -41.3758 2.15764 90.5542
lradius 37.2755
lwrist -12.1699
lhand -3.80457 -25.5455
lfingers 7.12502
lthumb 21.9416 3.23018
rfemur 11.0754 -4.96131 16.3749
rtibia 1.11319e-014
rfoot -13.3414 -6.79187
rtoes -10.0095
lfemur -2.3002 -4.0374 -10.5918
ltibia 24.0265
lfoot -21.745 9.45374
ltoes -56.528
